Coordinates
version=1
nRows=16
nColumns=42
inDegrees=yes

Units are S.I. units (second, meters, Newtons, ...)
If the header above contains a line with 'inDegrees', this indicates whether rotational values are in degrees (yes) or radians (no).

endheader
time	pelvis_tilt	pelvis_list	pelvis_rotation	pelvis_tx	pelvis_ty	pelvis_tz	hip_flexion_r	hip_adduction_r	hip_rotation_r	knee_angle_r	knee_adduction_r	knee_angle_r_beta	ankle_angle_r	subtalar_angle_r	mtp_angle_r	hip_flexion_l	hip_adduction_l	hip_rotation_l	knee_angle_l	knee_adduction_l	knee_angle_l_beta	ankle_angle_l	subtalar_angle_l	mtp_angle_l	lumbar_extension	lumbar_bending	lumbar_rotation	arm_flex_r	arm_add_r	arm_rot_r	elbow_flex_r	pro_sup_r	wrist_flex_r	wrist_dev_r	arm_flex_l	arm_add_l	arm_rot_l	elbow_flex_l	pro_sup_l	wrist_flex_l	wrist_dev_l
      2.91000000	     -2.79987886	      0.84680224	     -0.00873932	      1.53620477	      0.93801113	     -0.06569534	     -7.81055917	      3.62416915	      0.84560059	      3.89761208	     -8.11180316	      0.06802616	     22.45481059	      7.25636721	     -7.50035292	     29.50830355	     -0.35825717	      5.16649521	     25.38139104	     -0.08773758	      0.44298884	      4.09722097	    -15.57719705	     -7.50035292	     -7.12037044	     -5.03182292	     -2.37585794	      5.52415142	     -9.94127622	     -2.27660062	     31.32234130	     90.00000001	      0.00000000	      0.00000000	     -9.82212699	     -9.69428907	    -22.06503861	     16.15677757	     90.00000001	      0.00000000	      0.00000000
      2.92000000	     -2.84675657	      0.54524122	      0.05220560	      1.54648659	      0.93544297	     -0.06642939	     -8.50620295	      3.81852092	      0.39198313	      3.85106076	     -7.92961419	      0.06721369	     23.04790163	      7.65103341	     -7.50034044	     29.33491468	     -0.53370347	      5.42378208	     21.55384687	     -0.93144536	      0.37618559	      3.96860293	    -14.30344408	     -7.50034044	     -7.20951426	     -4.75748894	     -2.38030530	      6.09119182	    -10.21174974	     -1.79315651	     31.29827271	     90.00000001	      0.00000000	      0.00000000	    -10.21484789	     -9.56668733	    -22.43484136	     15.93107958	     90.00000001	      0.00000000	      0.00000000
      2.93000000	     -3.14901212	      0.05580329	      0.00307589	      1.55664807	      0.93238773	     -0.06690976	     -8.85513636	      4.30564887	      0.12870438	      3.90910980	     -7.91845225	      0.06822684	     23.65055644	      8.18334795	     -7.50032647	     29.65772494	     -1.02797919	      5.14602219	     18.31758837	     -1.79761378	      0.31970223	      3.91004416	    -12.60084499	     -7.50032647	     -6.99339333	     -4.29075205	     -2.20711438	      6.58437036	    -10.49108015	     -1.43651275	     31.28168776	     90.00000001	      0.00000000	      0.00000000	    -10.59525279	     -9.41903272	    -22.75185026	     15.75470326	     90.00000001	      0.00000000	      0.00000000
      2.94000000	     -3.67587032	     -0.56498220	     -0.11835867	      1.56672583	      0.92899328	     -0.06720478	     -8.91046893	      5.02605627	      0.09715551	      4.06089876	     -8.08487583	      0.07087605	     24.19117050	      8.41320873	     -7.50032093	     30.37040100	     -1.74144498	      4.68211776	     15.59144800	     -2.54859089	      0.27212210	      3.81912077	    -11.02507901	     -7.50032093	     -6.51681495	     -3.68492575	     -1.94319000	      7.01840307	    -10.74693089	     -1.17658039	     31.19395088	     90.00000001	      0.00000000	      0.00000000	    -11.00817691	     -9.26691773	    -22.79244814	     15.65819268	     90.00000001	      0.00000000	      0.00000000
      2.95000000	     -3.66324372	     -0.95427590	     -0.26610143	      1.57738484	      0.92628503	     -0.06789663	     -9.59531927	      5.30296735	     -0.28749685	      4.20495648	     -7.93708160	      0.07339034	     24.75335713	      8.95507843	     -7.50030544	     30.45162805	     -2.21770172	      3.10851980	     13.10768308	     -3.36888350	      0.22877223	      4.53225601	     -7.65119039	     -7.50030544	     -6.64212675	     -3.31176489	     -1.73742096	      7.46690635	    -11.01309519	     -0.84289137	     31.24198806	     90.00000001	      0.00000000	      0.00000000	    -11.27161976	     -9.10328146	    -23.18323626	     15.43150086	     90.00000001	      0.00000000	      0.00000000
      2.96000000	     -3.96433408	     -1.46734870	     -0.51859975	      1.58799519	      0.92319276	     -0.06825961	     -9.87341892	      5.81259669	     -0.40237132	      4.48157089	     -7.98221059	      0.07821817	     25.31139916	      9.47761835	     -7.50028481	     31.20086015	     -2.99427397	      0.94231124	     11.50998391	     -3.86572162	      0.20088712	      5.40970606	     -4.03558829	     -7.50028481	     -6.38295699	     -2.82663585	     -1.39150117	      7.80249107	    -11.23196356	     -0.64353903	     31.20549482	     90.00000001	      0.00000000	      0.00000000	    -11.54452668	     -8.95528374	    -23.53611350	     15.23027495	     90.00000001	      0.00000000	      0.00000000
      2.97000000	     -4.31788617	     -1.92748271	     -0.70082681	      1.59834097	      0.92024122	     -0.06883468	    -10.04940716	      6.26871986	     -0.38225602	      4.85186664	     -8.02500536	      0.08468105	     25.73957986	      9.52109780	     -7.50027845	     31.79395972	     -3.60025494	     -0.25421160	      9.90674047	     -4.17429255	      0.17290524	      5.46507319	     -2.34824542	     -7.50027845	     -6.12648530	     -2.39072275	     -1.12639794	      8.14752879	    -11.39164661	     -0.56151102	     31.13361730	     90.00000001	      0.00000000	      0.00000000	    -11.77536592	     -8.84956864	    -23.56651547	     15.10556559	     90.00000001	      0.00000000	      0.00000000
      2.98000000	     -4.37422398	     -2.16219460	     -1.01450165	      1.60939112	      0.91768621	     -0.06952202	    -10.60280290	      6.36887528	     -0.46249713	      5.20037611	     -7.96608614	      0.09076369	     26.17352830	      9.80826617	     -7.50026068	     32.39440304	     -4.19054643	     -3.41886719	      9.35762945	     -4.30186762	      0.16332144	      6.83224672	      2.17328615	     -7.50026068	     -6.14442393	     -2.19942045	     -0.75215128	      8.38380853	    -11.54731817	     -0.57252624	     31.15321922	     90.00000001	      0.00000000	      0.00000000	    -11.92205565	     -8.73936481	    -23.90792942	     14.88960067	     90.00000001	      0.00000000	      0.00000000
      2.99000000	     -4.61603367	     -2.45326791	     -0.94673851	      1.62003093	      0.91509774	     -0.07065087	    -10.98365836	      6.58236956	     -0.56715173	      5.44397606	     -7.87813962	      0.09501531	     26.26841438	      9.76663411	     -7.50025920	     32.95607811	     -4.41088675	     -4.10159939	      8.80997102	     -4.40019024	      0.15376300	      6.78022330	      2.29585645	     -7.50025920	     -6.02371703	     -1.94643885	     -0.79922964	      8.59243623	    -11.61356498	     -0.59453929	     31.23165843	     90.00000001	      0.00000000	      0.00000000	    -12.10409377	     -8.70390234	    -23.88803499	     14.83420995	     90.00000001	      0.00000000	      0.00000000
      3.00000000	     -4.89169326	     -2.63031554	     -1.37284677	      1.63076551	      0.91280116	     -0.07119335	    -11.12426611	      6.64867818	     -0.29246949	      6.11990950	     -7.93088892	      0.10681257	     26.71378863	      9.68588014	     -7.50025543	     33.17750738	     -4.86351121	     -5.15587568	      8.06344328	     -4.28099663	      0.14073363	      6.45821508	      3.92625371	     -7.50025543	     -5.84623869	     -1.84220761	     -0.27506799	      8.78796639	    -11.66144906	     -0.68745708	     30.99465010	     90.00000001	      0.00000000	      0.00000000	    -12.11743613	     -8.68459490	    -23.90276144	     14.66152409	     90.00000001	      0.00000000	      0.00000000
      3.01000000	     -5.06382954	     -2.72970070	     -1.35997052	      1.64187002	      0.91062585	     -0.07249908	    -11.57063804	      6.61184906	     -0.27450901	      6.44734522	     -7.86583649	      0.11252740	     26.67152428	      9.69742171	     -7.50025443	     33.47029166	     -4.84167893	     -5.30229842	      8.11198974	     -4.29056746	      0.14158093	      6.44802395	      4.01769245	     -7.50025443	     -5.76810936	     -1.80579334	     -0.26603313	      8.84478495	    -11.70238683	     -0.73060481	     31.07244496	     90.00000001	      0.00000000	      0.00000000	    -12.23604425	     -8.71201653	    -23.90017317	     14.67834240	     90.00000001	      0.00000000	      0.00000000
      3.02000000	     -4.96799955	     -2.56533116	     -1.71432407	      1.65354072	      0.90898204	     -0.07379487	    -12.15881103	      6.03869533	     -0.26939917	      7.11902990	     -7.55552991	      0.12425051	     26.93081540	      9.79413288	     -7.50023553	     33.84909535	     -4.98729923	     -8.23356874	      9.27899807	     -4.23843948	      0.16194907	      7.52266024	      8.33294139	     -7.50023553	     -5.95269901	     -2.03829397	      0.09639498	      8.91187413	    -11.59697046	     -1.36594736	     31.00190529	     90.00000001	      0.00000000	      0.00000000	    -12.05122839	     -8.67302050	    -24.38018090	     14.26764517	     90.00000001	      0.00000000	      0.00000000
      3.03000000	     -5.11437107	     -2.55286815	     -1.79891083	      1.66524964	      0.90726563	     -0.07514838	    -12.61286268	      5.83018941	     -0.14685581	      7.53057580	     -7.52509391	      0.13143334	     26.83065174	      9.82861615	     -7.50023449	     33.87391060	     -4.87064060	     -7.93269621	      9.66189069	     -4.18795039	      0.16863180	      7.33328520	      8.42056302	     -7.50023449	     -5.83931201	     -2.12256744	      0.18714162	      8.79087057	    -11.57426083	     -1.39383220	     30.99846089	     90.00000001	      0.00000000	      0.00000000	    -12.12714162	     -8.69688945	    -24.36907283	     14.30134351	     90.00000001	      0.00000000	      0.00000000
      3.04000000	     -5.09233082	     -2.36146532	     -1.68767497	      1.67656693	      0.90602251	     -0.07718298	    -13.07401702	      5.22438257	     -0.16733530	      8.27126445	     -7.04638381	      0.14436080	     26.58781832	      9.61186882	     -7.50023159	     34.04021763	     -4.38704591	     -7.63365185	     10.86413859	     -4.29257518	      0.18961499	      6.35176237	      8.32999817	     -7.50023159	     -6.04946448	     -2.37887447	      0.08850717	      8.76830523	    -11.46697590	     -1.74129279	     31.04024626	     90.00000001	      0.00000000	      0.00000000	    -11.87961640	     -8.78842497	    -24.24053642	     14.11769830	     90.00000001	      0.00000000	      0.00000000
      3.05000000	     -5.13407914	     -2.07520656	     -1.57298222	      1.68850142	      0.90495276	     -0.07915952	    -13.49462794	      4.57097135	     -0.32377592	      8.97233946	     -6.72063301	      0.15659687	     26.20949820	      9.33726054	     -7.50022817	     34.15034719	     -3.82738324	     -7.08155649	     12.08505430	     -4.32303420	      0.21092399	      5.36230473	      7.97274160	     -7.50022817	     -6.07899085	     -2.76344167	      0.02597113	      8.56554618	    -11.28267125	     -2.24239613	     30.96378101	     90.00000001	      0.00000000	      0.00000000	    -11.65902840	     -8.93246955	    -24.15998651	     13.94338151	     90.00000001	      0.00000000	      0.00000000
      3.06000000	     -5.14706900	     -1.79344357	     -1.50391684	      1.70052148	      0.90424851	     -0.08113250	    -13.91350550	      3.94871608	     -0.16820430	      9.74302722	     -6.44801385	      0.17004790	     25.72953351	      9.28495085	     -7.50022599	     34.13276103	     -3.33559204	     -6.14090518	     13.26676992	     -4.19856112	      0.23154882	      4.57773977	      7.82779364	     -7.50022599	     -6.14944775	     -3.14317265	     -0.01009787	      8.31697665	    -11.12793346	     -2.52215065	     30.91023319	     90.00000001	      0.00000000	      0.00000000	    -11.45086329	     -9.06218977	    -24.09785390	     13.93542365	     90.00000001	      0.00000000	      0.00000000
